<svg xmlns="http://www.w3.org/2000/svg" viewBox="0 0 600 300" font-family="'Segoe UI', 'Helvetica Neue', Arial, sans-serif">
  <defs>
    <linearGradient id="areaGrad" x1="0" y1="0" x2="0" y2="1">
      <stop offset="0%" stop-color="#2980b9" stop-opacity="0.25"/>
      <stop offset="100%" stop-color="#2980b9" stop-opacity="0.02"/>
    </linearGradient>
  </defs>

  <!-- Cumulative: 2019:10, 2020:72, 2021:410, 2022:791, 2023:1300, 2024:1747, 2025:2225, 2026:2369 -->
  <!-- Chart area: x=80..560, y=30..235, max=2500 -->

  <!-- Y axis -->
  <line x1="80" y1="30" x2="80" y2="235" stroke="#ccc" stroke-width="1"/>
  <!-- X axis -->
  <line x1="80" y1="235" x2="560" y2="235" stroke="#ccc" stroke-width="1"/>

  <!-- Y gridlines and labels (0, 500, 1000, 1500, 2000, 2500) -->
  <!-- scale: y = 235 - (value/2500)*205 -->
  <line x1="80" y1="235" x2="560" y2="235" stroke="#eee" stroke-width="0.5"/>
  <text x="70" y="239" text-anchor="end" fill="#999" font-size="11">0</text>

  <line x1="80" y1="194" x2="560" y2="194" stroke="#eee" stroke-width="0.5"/>
  <text x="70" y="198" text-anchor="end" fill="#999" font-size="11">500</text>

  <line x1="80" y1="153" x2="560" y2="153" stroke="#eee" stroke-width="0.5"/>
  <text x="70" y="157" text-anchor="end" fill="#999" font-size="11">1000</text>

  <line x1="80" y1="112" x2="560" y2="112" stroke="#eee" stroke-width="0.5"/>
  <text x="70" y="116" text-anchor="end" fill="#999" font-size="11">1500</text>

  <line x1="80" y1="71" x2="560" y2="71" stroke="#eee" stroke-width="0.5"/>
  <text x="70" y="75" text-anchor="end" fill="#999" font-size="11">2000</text>

  <line x1="80" y1="30" x2="560" y2="30" stroke="#eee" stroke-width="0.5"/>
  <text x="70" y="34" text-anchor="end" fill="#999" font-size="11">2500</text>

  <!-- x positions: 8 points evenly from 110 to 530, step=60 -->
  <!-- 2019:10    x=110 y=234.2 -->
  <!-- 2020:72    x=170 y=229.1 -->
  <!-- 2021:410   x=230 y=201.4 -->
  <!-- 2022:791   x=290 y=170.1 -->
  <!-- 2023:1300  x=350 y=128.4 -->
  <!-- 2024:1747  x=410 y=91.7  -->
  <!-- 2025:2225  x=470 y=52.5  -->
  <!-- 2026:2369  x=530 y=40.7  -->

  <!-- Area fill -->
  <polygon points="110,234.2 170,229.1 230,201.4 290,170.1 350,128.4 410,91.7 470,52.5 530,40.7 530,235 110,235" fill="url(#areaGrad)"/>

  <!-- Line -->
  <polyline points="110,234.2 170,229.1 230,201.4 290,170.1 350,128.4 410,91.7 470,52.5 530,40.7" fill="none" stroke="#2980b9" stroke-width="2.5" stroke-linejoin="round" stroke-linecap="round"/>

  <!-- Data points and labels -->
  <circle cx="110" cy="234.2" r="3.5" fill="#2980b9"/>
  <text x="110" y="250" text-anchor="middle" fill="#666" font-size="11">2019</text>
  <text x="110" y="228" text-anchor="middle" fill="#2c3e50" font-size="10" font-weight="600">10</text>

  <circle cx="170" cy="229.1" r="3.5" fill="#2980b9"/>
  <text x="170" y="250" text-anchor="middle" fill="#666" font-size="11">2020</text>
  <text x="170" y="223" text-anchor="middle" fill="#2c3e50" font-size="10" font-weight="600">72</text>

  <circle cx="230" cy="201.4" r="3.5" fill="#2980b9"/>
  <text x="230" y="250" text-anchor="middle" fill="#666" font-size="11">2021</text>
  <text x="230" y="195" text-anchor="middle" fill="#2c3e50" font-size="10" font-weight="600">410</text>

  <circle cx="290" cy="170.1" r="3.5" fill="#2980b9"/>
  <text x="290" y="250" text-anchor="middle" fill="#666" font-size="11">2022</text>
  <text x="290" y="164" text-anchor="middle" fill="#2c3e50" font-size="10" font-weight="600">791</text>

  <circle cx="350" cy="128.4" r="3.5" fill="#2980b9"/>
  <text x="350" y="250" text-anchor="middle" fill="#666" font-size="11">2023</text>
  <text x="350" y="122" text-anchor="middle" fill="#2c3e50" font-size="10" font-weight="600">1,300</text>

  <circle cx="410" cy="91.7" r="3.5" fill="#2980b9"/>
  <text x="410" y="250" text-anchor="middle" fill="#666" font-size="11">2024</text>
  <text x="410" y="85" text-anchor="middle" fill="#2c3e50" font-size="10" font-weight="600">1,747</text>

  <circle cx="470" cy="52.5" r="3.5" fill="#2980b9"/>
  <text x="470" y="250" text-anchor="middle" fill="#666" font-size="11">2025</text>
  <text x="470" y="46" text-anchor="middle" fill="#2c3e50" font-size="10" font-weight="600">2,225</text>

  <circle cx="530" cy="40.7" r="3.5" fill="#2980b9"/>
  <text x="530" y="250" text-anchor="middle" fill="#666" font-size="11">2026</text>
  <text x="530" y="34" text-anchor="middle" fill="#2c3e50" font-size="10" font-weight="600">2,369</text>

  <!-- Title -->
  <text x="320" y="280" text-anchor="middle" fill="#7f8c8d" font-size="12">Google Scholar Cumulative Citations</text>
</svg>
