<svg xmlns="http://www.w3.org/2000/svg" viewBox="0 0 960 540" font-family="'Segoe UI', 'Helvetica Neue', Arial, sans-serif">
  <defs>
    <filter id="s" x="-2%" y="-2%" width="104%" height="108%">
      <feDropShadow dx="0" dy="1" stdDeviation="2" flood-opacity="0.08"/>
    </filter>
  </defs>

  <!-- ========== ROW 1: DATA ========== -->
  <text x="480" y="30" text-anchor="middle" fill="#5a7a6a" font-size="18" font-weight="700" letter-spacing="3">DATA SOURCES</text>
  <line x1="200" y1="42" x2="760" y2="42" stroke="#c8d5cd" stroke-width="1"/>

  <rect x="20" y="56" width="172" height="50" rx="8" fill="#eef3f0" stroke="#c8d5cd" stroke-width="1" filter="url(#s)"/>
  <text x="106" y="87" text-anchor="middle" fill="#4a6a5a" font-size="15" font-weight="600">Mobile Phones</text>

  <rect x="206" y="56" width="172" height="50" rx="8" fill="#eef3f0" stroke="#c8d5cd" stroke-width="1" filter="url(#s)"/>
  <text x="292" y="87" text-anchor="middle" fill="#4a6a5a" font-size="15" font-weight="600">City Cameras</text>

  <rect x="392" y="56" width="176" height="50" rx="8" fill="#eef3f0" stroke="#c8d5cd" stroke-width="1" filter="url(#s)"/>
  <text x="480" y="87" text-anchor="middle" fill="#4a6a5a" font-size="15" font-weight="600">Connected Vehicles</text>

  <rect x="582" y="56" width="172" height="50" rx="8" fill="#eef3f0" stroke="#c8d5cd" stroke-width="1" filter="url(#s)"/>
  <text x="668" y="87" text-anchor="middle" fill="#4a6a5a" font-size="15" font-weight="600">Social Media</text>

  <rect x="768" y="56" width="172" height="50" rx="8" fill="#eef3f0" stroke="#c8d5cd" stroke-width="1" filter="url(#s)"/>
  <text x="854" y="80" text-anchor="middle" fill="#4a6a5a" font-size="15" font-weight="600">Crowdsourced</text>
  <text x="854" y="98" text-anchor="middle" fill="#4a6a5a" font-size="15" font-weight="600">Reviews</text>

  <!-- Arrow Data → Methods -->
  <line x1="480" y1="116" x2="480" y2="140" stroke="#b0bfb8" stroke-width="2"/>
  <polygon points="473,137 480,148 487,137" fill="#b0bfb8"/>

  <!-- ========== ROW 2: METHODS ========== -->
  <text x="480" y="170" text-anchor="middle" fill="#8a6d4a" font-size="18" font-weight="700" letter-spacing="3">METHODS</text>
  <line x1="200" y1="182" x2="760" y2="182" stroke="#ddd0c2" stroke-width="1"/>

  <rect x="20" y="195" width="220" height="120" rx="10" fill="#faf6f1" stroke="#ddd0c2" stroke-width="1" filter="url(#s)"/>
  <text x="130" y="230" text-anchor="middle" fill="#7a5e3e" font-size="16" font-weight="700">Crowdsourced</text>
  <text x="130" y="252" text-anchor="middle" fill="#7a5e3e" font-size="16" font-weight="700">Data Mining</text>
  <text x="130" y="282" text-anchor="middle" fill="#9a8a7a" font-size="13">Data Fusion · Contextual</text>
  <text x="130" y="300" text-anchor="middle" fill="#9a8a7a" font-size="13">Inference · Bias Correction</text>

  <rect x="258" y="195" width="220" height="120" rx="10" fill="#faf6f1" stroke="#ddd0c2" stroke-width="1" filter="url(#s)"/>
  <text x="368" y="235" text-anchor="middle" fill="#7a5e3e" font-size="16" font-weight="700">Spatiotemporal AI</text>
  <text x="368" y="270" text-anchor="middle" fill="#9a8a7a" font-size="13">Graph Neural Network</text>
  <text x="368" y="288" text-anchor="middle" fill="#9a8a7a" font-size="13">Computer Vision · LLM</text>

  <rect x="496" y="195" width="220" height="120" rx="10" fill="#faf6f1" stroke="#ddd0c2" stroke-width="1" filter="url(#s)"/>
  <text x="606" y="235" text-anchor="middle" fill="#7a5e3e" font-size="16" font-weight="700">Network Analysis</text>
  <text x="606" y="270" text-anchor="middle" fill="#9a8a7a" font-size="13">Network Modeling</text>
  <text x="606" y="288" text-anchor="middle" fill="#9a8a7a" font-size="13">Network Science · Optimization</text>

  <rect x="734" y="195" width="220" height="120" rx="10" fill="#faf6f1" stroke="#ddd0c2" stroke-width="1" filter="url(#s)"/>
  <text x="844" y="230" text-anchor="middle" fill="#7a5e3e" font-size="16" font-weight="700">Advanced</text>
  <text x="844" y="252" text-anchor="middle" fill="#7a5e3e" font-size="16" font-weight="700">Statistics</text>
  <text x="844" y="282" text-anchor="middle" fill="#9a8a7a" font-size="13">Causal Inference</text>
  <text x="844" y="300" text-anchor="middle" fill="#9a8a7a" font-size="13">Nonlinear Regression</text>

  <!-- Arrow Methods → Applications -->
  <line x1="480" y1="325" x2="480" y2="349" stroke="#c2b8a8" stroke-width="2"/>
  <polygon points="473,346 480,357 487,346" fill="#c2b8a8"/>

  <!-- ========== ROW 3: APPLICATIONS ========== -->
  <text x="480" y="379" text-anchor="middle" fill="#506880" font-size="18" font-weight="700" letter-spacing="3">APPLICATIONS</text>
  <line x1="200" y1="391" x2="760" y2="391" stroke="#c2ced8" stroke-width="1"/>

  <rect x="20" y="404" width="220" height="120" rx="10" fill="#f2f5f8" stroke="#c2ced8" stroke-width="1" filter="url(#s)"/>
  <text x="130" y="439" text-anchor="middle" fill="#3e5e7a" font-size="16" font-weight="700">Transportation</text>
  <text x="130" y="461" text-anchor="middle" fill="#3e5e7a" font-size="16" font-weight="700">Planning</text>
  <text x="130" y="491" text-anchor="middle" fill="#7a8e9e" font-size="13">Demand Modeling</text>
  <text x="130" y="509" text-anchor="middle" fill="#7a8e9e" font-size="13">Behavior · Simulation</text>

  <rect x="258" y="404" width="220" height="120" rx="10" fill="#f2f5f8" stroke="#c2ced8" stroke-width="1" filter="url(#s)"/>
  <text x="368" y="444" text-anchor="middle" fill="#3e5e7a" font-size="16" font-weight="700">Policy Evaluation</text>
  <text x="368" y="479" text-anchor="middle" fill="#7a8e9e" font-size="13">Transport Decarbonization</text>
  <text x="368" y="497" text-anchor="middle" fill="#7a8e9e" font-size="13">Demand Management</text>

  <rect x="496" y="404" width="220" height="120" rx="10" fill="#f2f5f8" stroke="#c2ced8" stroke-width="1" filter="url(#s)"/>
  <text x="606" y="439" text-anchor="middle" fill="#3e5e7a" font-size="16" font-weight="700">Complex System</text>
  <text x="606" y="461" text-anchor="middle" fill="#3e5e7a" font-size="16" font-weight="700">Resilience</text>
  <text x="606" y="491" text-anchor="middle" fill="#7a8e9e" font-size="13">Urban Multi-system</text>
  <text x="606" y="509" text-anchor="middle" fill="#7a8e9e" font-size="13">Network Resilience</text>

  <rect x="734" y="404" width="220" height="120" rx="10" fill="#f2f5f8" stroke="#c2ced8" stroke-width="1" filter="url(#s)"/>
  <text x="844" y="439" text-anchor="middle" fill="#3e5e7a" font-size="16" font-weight="700">Environmental</text>
  <text x="844" y="461" text-anchor="middle" fill="#3e5e7a" font-size="16" font-weight="700">Health</text>
  <text x="844" y="491" text-anchor="middle" fill="#7a8e9e" font-size="13">Epidemiology · Exposure</text>
  <text x="844" y="509" text-anchor="middle" fill="#7a8e9e" font-size="13">Health Disparity</text>
</svg>
