<svg xmlns="http://www.w3.org/2000/svg" viewBox="0 0 960 620" font-family="'Segoe UI', 'Helvetica Neue', Arial, sans-serif">
  <defs>
    <filter id="s" x="-2%" y="-2%" width="104%" height="108%">
      <feDropShadow dx="0" dy="1" stdDeviation="2" flood-opacity="0.08"/>
    </filter>
  </defs>

  <!-- Background -->
  <rect width="960" height="620" fill="#f7f8fa"/>

  <!-- ========== ROW 1: DATA ========== -->
  <text x="480" y="40" text-anchor="middle" fill="#5a7a6a" font-size="18" font-weight="700" letter-spacing="3">DATA SOURCES</text>
  <line x1="200" y1="52" x2="760" y2="52" stroke="#c8d5cd" stroke-width="1"/>

  <rect x="20" y="68" width="172" height="50" rx="8" fill="#eef3f0" stroke="#c8d5cd" stroke-width="1" filter="url(#s)"/>
  <text x="106" y="99" text-anchor="middle" fill="#4a6a5a" font-size="15" font-weight="600">Mobile Phones</text>

  <rect x="206" y="68" width="172" height="50" rx="8" fill="#eef3f0" stroke="#c8d5cd" stroke-width="1" filter="url(#s)"/>
  <text x="292" y="99" text-anchor="middle" fill="#4a6a5a" font-size="15" font-weight="600">City Cameras</text>

  <rect x="392" y="68" width="176" height="50" rx="8" fill="#eef3f0" stroke="#c8d5cd" stroke-width="1" filter="url(#s)"/>
  <text x="480" y="99" text-anchor="middle" fill="#4a6a5a" font-size="15" font-weight="600">Connected Vehicles</text>

  <rect x="582" y="68" width="172" height="50" rx="8" fill="#eef3f0" stroke="#c8d5cd" stroke-width="1" filter="url(#s)"/>
  <text x="668" y="99" text-anchor="middle" fill="#4a6a5a" font-size="15" font-weight="600">Social Media</text>

  <rect x="768" y="68" width="172" height="50" rx="8" fill="#eef3f0" stroke="#c8d5cd" stroke-width="1" filter="url(#s)"/>
  <text x="854" y="92" text-anchor="middle" fill="#4a6a5a" font-size="15" font-weight="600">Crowdsourced</text>
  <text x="854" y="110" text-anchor="middle" fill="#4a6a5a" font-size="15" font-weight="600">Reviews</text>

  <!-- Arrow Data → Methods -->
  <line x1="480" y1="128" x2="480" y2="162" stroke="#b0bfb8" stroke-width="2"/>
  <polygon points="473,158 480,170 487,158" fill="#b0bfb8"/>

  <!-- ========== ROW 2: METHODS ========== -->
  <text x="480" y="198" text-anchor="middle" fill="#8a6d4a" font-size="18" font-weight="700" letter-spacing="3">METHODS</text>
  <line x1="200" y1="210" x2="760" y2="210" stroke="#ddd0c2" stroke-width="1"/>

  <!-- Method 1 -->
  <rect x="20" y="225" width="220" height="120" rx="10" fill="#faf6f1" stroke="#ddd0c2" stroke-width="1" filter="url(#s)"/>
  <text x="130" y="260" text-anchor="middle" fill="#7a5e3e" font-size="16" font-weight="700">Crowdsourced</text>
  <text x="130" y="282" text-anchor="middle" fill="#7a5e3e" font-size="16" font-weight="700">Data Mining</text>
  <text x="130" y="312" text-anchor="middle" fill="#9a8a7a" font-size="13">Data Fusion · Contextual</text>
  <text x="130" y="330" text-anchor="middle" fill="#9a8a7a" font-size="13">Inference · Bias Correction</text>

  <!-- Method 2 -->
  <rect x="258" y="225" width="220" height="120" rx="10" fill="#faf6f1" stroke="#ddd0c2" stroke-width="1" filter="url(#s)"/>
  <text x="368" y="265" text-anchor="middle" fill="#7a5e3e" font-size="16" font-weight="700">Spatiotemporal AI</text>
  <text x="368" y="300" text-anchor="middle" fill="#9a8a7a" font-size="13">Graph Neural Network</text>
  <text x="368" y="318" text-anchor="middle" fill="#9a8a7a" font-size="13">Computer Vision · LLM</text>

  <!-- Method 3 -->
  <rect x="496" y="225" width="220" height="120" rx="10" fill="#faf6f1" stroke="#ddd0c2" stroke-width="1" filter="url(#s)"/>
  <text x="606" y="265" text-anchor="middle" fill="#7a5e3e" font-size="16" font-weight="700">Network Analysis</text>
  <text x="606" y="300" text-anchor="middle" fill="#9a8a7a" font-size="13">Network Modeling</text>
  <text x="606" y="318" text-anchor="middle" fill="#9a8a7a" font-size="13">Network Science · Optimization</text>

  <!-- Method 4 -->
  <rect x="734" y="225" width="220" height="120" rx="10" fill="#faf6f1" stroke="#ddd0c2" stroke-width="1" filter="url(#s)"/>
  <text x="844" y="260" text-anchor="middle" fill="#7a5e3e" font-size="16" font-weight="700">Advanced</text>
  <text x="844" y="282" text-anchor="middle" fill="#7a5e3e" font-size="16" font-weight="700">Statistics</text>
  <text x="844" y="312" text-anchor="middle" fill="#9a8a7a" font-size="13">Causal Inference</text>
  <text x="844" y="330" text-anchor="middle" fill="#9a8a7a" font-size="13">Nonlinear Regression</text>

  <!-- Arrow Methods → Applications -->
  <line x1="480" y1="355" x2="480" y2="389" stroke="#c2b8a8" stroke-width="2"/>
  <polygon points="473,385 480,397 487,385" fill="#c2b8a8"/>

  <!-- ========== ROW 3: APPLICATIONS ========== -->
  <text x="480" y="425" text-anchor="middle" fill="#506880" font-size="18" font-weight="700" letter-spacing="3">APPLICATIONS</text>
  <line x1="200" y1="437" x2="760" y2="437" stroke="#c2ced8" stroke-width="1"/>

  <!-- App 1 -->
  <rect x="20" y="452" width="220" height="120" rx="10" fill="#f2f5f8" stroke="#c2ced8" stroke-width="1" filter="url(#s)"/>
  <text x="130" y="487" text-anchor="middle" fill="#3e5e7a" font-size="16" font-weight="700">Transportation</text>
  <text x="130" y="509" text-anchor="middle" fill="#3e5e7a" font-size="16" font-weight="700">Planning</text>
  <text x="130" y="539" text-anchor="middle" fill="#7a8e9e" font-size="13">Demand Modeling</text>
  <text x="130" y="557" text-anchor="middle" fill="#7a8e9e" font-size="13">Behavior · Simulation</text>

  <!-- App 2 -->
  <rect x="258" y="452" width="220" height="120" rx="10" fill="#f2f5f8" stroke="#c2ced8" stroke-width="1" filter="url(#s)"/>
  <text x="368" y="492" text-anchor="middle" fill="#3e5e7a" font-size="16" font-weight="700">Policy Evaluation</text>
  <text x="368" y="527" text-anchor="middle" fill="#7a8e9e" font-size="13">Transport Decarbonization</text>
  <text x="368" y="545" text-anchor="middle" fill="#7a8e9e" font-size="13">Demand Management</text>

  <!-- App 3 -->
  <rect x="496" y="452" width="220" height="120" rx="10" fill="#f2f5f8" stroke="#c2ced8" stroke-width="1" filter="url(#s)"/>
  <text x="606" y="487" text-anchor="middle" fill="#3e5e7a" font-size="16" font-weight="700">Complex System</text>
  <text x="606" y="509" text-anchor="middle" fill="#3e5e7a" font-size="16" font-weight="700">Resilience</text>
  <text x="606" y="539" text-anchor="middle" fill="#7a8e9e" font-size="13">Urban Multi-system</text>
  <text x="606" y="557" text-anchor="middle" fill="#7a8e9e" font-size="13">Network Resilience</text>

  <!-- App 4 -->
  <rect x="734" y="452" width="220" height="120" rx="10" fill="#f2f5f8" stroke="#c2ced8" stroke-width="1" filter="url(#s)"/>
  <text x="844" y="487" text-anchor="middle" fill="#3e5e7a" font-size="16" font-weight="700">Environmental</text>
  <text x="844" y="509" text-anchor="middle" fill="#3e5e7a" font-size="16" font-weight="700">Health</text>
  <text x="844" y="539" text-anchor="middle" fill="#7a8e9e" font-size="13">Epidemiology · Exposure</text>
  <text x="844" y="557" text-anchor="middle" fill="#7a8e9e" font-size="13">Health Disparity</text>

  <!-- Bottom tagline -->
  <line x1="200" y1="592" x2="760" y2="592" stroke="#dce0e4" stroke-width="1"/>
  <text x="480" y="614" text-anchor="middle" fill="#6a7a8a" font-size="14" font-style="italic">Towards Smart, Sustainable, Resilient, and Equitable Mobility Systems</text>
</svg>
