<svg xmlns="http://www.w3.org/2000/svg" viewBox="0 0 960 338" font-family="'Segoe UI', 'Helvetica Neue', Arial, sans-serif">
  <defs>
    <filter id="s" x="-2%" y="-2%" width="104%" height="108%">
      <feDropShadow dx="0" dy="1" stdDeviation="2" flood-opacity="0.08"/>
    </filter>
  </defs>

  <!-- ========== COLUMN 1: DATA SOURCES (w=200) ========== -->
  <text x="130" y="30" text-anchor="middle" fill="#5a7a6a" font-size="18" font-weight="700" letter-spacing="3">DATA SOURCES</text>
  <line x1="30" y1="42" x2="230" y2="42" stroke="#c8d5cd" stroke-width="1"/>

  <rect x="30" y="55" width="200" height="60" rx="10" fill="#eef3f0" stroke="#c8d5cd" stroke-width="1" filter="url(#s)"/>
  <text x="130" y="90" text-anchor="middle" fill="#4a6a5a" font-size="16" font-weight="600">Mobile Phones</text>

  <rect x="30" y="123" width="200" height="60" rx="10" fill="#eef3f0" stroke="#c8d5cd" stroke-width="1" filter="url(#s)"/>
  <text x="130" y="158" text-anchor="middle" fill="#4a6a5a" font-size="16" font-weight="600">City Cameras</text>

  <rect x="30" y="191" width="200" height="60" rx="10" fill="#eef3f0" stroke="#c8d5cd" stroke-width="1" filter="url(#s)"/>
  <text x="130" y="226" text-anchor="middle" fill="#4a6a5a" font-size="16" font-weight="600">Connected Vehicles</text>

  <rect x="30" y="259" width="200" height="60" rx="10" fill="#eef3f0" stroke="#c8d5cd" stroke-width="1" filter="url(#s)"/>
  <text x="130" y="294" text-anchor="middle" fill="#4a6a5a" font-size="16" font-weight="600">Social Media</text>

  <!-- Arrow DATA → METHODS (centered vertically in full column) -->
  <line x1="240" y1="187" x2="290" y2="187" stroke="#b0bfb8" stroke-width="2"/>
  <polygon points="287,180 300,187 287,194" fill="#b0bfb8"/>

  <!-- ========== COLUMN 2: METHODS (w=285) ========== -->
  <text x="448" y="30" text-anchor="middle" fill="#8a6d4a" font-size="18" font-weight="700" letter-spacing="3">METHODS</text>
  <line x1="305" y1="42" x2="590" y2="42" stroke="#ddd0c2" stroke-width="1"/>

  <rect x="305" y="55" width="285" height="60" rx="10" fill="#faf6f1" stroke="#ddd0c2" stroke-width="1" filter="url(#s)"/>
  <text x="448" y="77" text-anchor="middle" fill="#7a5e3e" font-size="16" font-weight="700">Crowdsourced Data Mining</text>
  <text x="448" y="100" text-anchor="middle" fill="#9a8a7a" font-size="14">Data Fusion · Bias Correction</text>

  <rect x="305" y="123" width="285" height="60" rx="10" fill="#faf6f1" stroke="#ddd0c2" stroke-width="1" filter="url(#s)"/>
  <text x="448" y="145" text-anchor="middle" fill="#7a5e3e" font-size="16" font-weight="700">Spatiotemporal AI</text>
  <text x="448" y="168" text-anchor="middle" fill="#9a8a7a" font-size="14">GNN · Computer Vision · LLM</text>

  <rect x="305" y="191" width="285" height="60" rx="10" fill="#faf6f1" stroke="#ddd0c2" stroke-width="1" filter="url(#s)"/>
  <text x="448" y="213" text-anchor="middle" fill="#7a5e3e" font-size="16" font-weight="700">Network Analysis</text>
  <text x="448" y="236" text-anchor="middle" fill="#9a8a7a" font-size="14">Modeling · Optimization</text>

  <rect x="305" y="259" width="285" height="60" rx="10" fill="#faf6f1" stroke="#ddd0c2" stroke-width="1" filter="url(#s)"/>
  <text x="448" y="281" text-anchor="middle" fill="#7a5e3e" font-size="16" font-weight="700">Advanced Statistics</text>
  <text x="448" y="304" text-anchor="middle" fill="#9a8a7a" font-size="14">Causal Inference · Regression</text>

  <!-- Arrow METHODS → APPLICATIONS -->
  <line x1="600" y1="187" x2="650" y2="187" stroke="#c2b8a8" stroke-width="2"/>
  <polygon points="647,180 660,187 647,194" fill="#c2b8a8"/>

  <!-- ========== COLUMN 3: APPLICATIONS (w=285) ========== -->
  <text x="808" y="30" text-anchor="middle" fill="#506880" font-size="18" font-weight="700" letter-spacing="3">APPLICATIONS</text>
  <line x1="665" y1="42" x2="950" y2="42" stroke="#c2ced8" stroke-width="1"/>

  <rect x="665" y="55" width="285" height="60" rx="10" fill="#f2f5f8" stroke="#c2ced8" stroke-width="1" filter="url(#s)"/>
  <text x="808" y="77" text-anchor="middle" fill="#3e5e7a" font-size="16" font-weight="700">Transportation Planning</text>
  <text x="808" y="100" text-anchor="middle" fill="#7a8e9e" font-size="14">Demand · Behavior · Simulation</text>

  <rect x="665" y="123" width="285" height="60" rx="10" fill="#f2f5f8" stroke="#c2ced8" stroke-width="1" filter="url(#s)"/>
  <text x="808" y="145" text-anchor="middle" fill="#3e5e7a" font-size="16" font-weight="700">Policy Evaluation</text>
  <text x="808" y="168" text-anchor="middle" fill="#7a8e9e" font-size="14">Decarbonization · Demand Mgmt</text>

  <rect x="665" y="191" width="285" height="60" rx="10" fill="#f2f5f8" stroke="#c2ced8" stroke-width="1" filter="url(#s)"/>
  <text x="808" y="213" text-anchor="middle" fill="#3e5e7a" font-size="16" font-weight="700">Complex System Resilience</text>
  <text x="808" y="236" text-anchor="middle" fill="#7a8e9e" font-size="14">Urban Multi-system Networks</text>

  <rect x="665" y="259" width="285" height="60" rx="10" fill="#f2f5f8" stroke="#c2ced8" stroke-width="1" filter="url(#s)"/>
  <text x="808" y="281" text-anchor="middle" fill="#3e5e7a" font-size="16" font-weight="700">Environmental Health</text>
  <text x="808" y="304" text-anchor="middle" fill="#7a8e9e" font-size="14">Epidemiology · Exposure</text>
</svg>
